<?xml version="1.0" standalone="no"?>
<!DOCTYPE svg PUBLIC "-//W3C//DTD SVG 20010904//EN"
 "http://www.w3.org/TR/2001/REC-SVG-20010904/DTD/svg10.dtd">
<svg version="1.0" xmlns="http://www.w3.org/2000/svg"
 width="260.000000pt" height="260.000000pt" viewBox="0 0 260.000000 260.000000"
 preserveAspectRatio="xMidYMid meet">
<metadata>
Created by potrace 1.11, written by Peter Selinger 2001-2013
</metadata>
<g transform="translate(0.000000,260.000000) scale(0.100000,-0.100000)"
fill="#000000" stroke="none">
<path d="M1350 2470 l0 -30 -135 0 -135 0 0 -30 c0 -25 -4 -30 -25 -30 -20 0
-25 -5 -25 -25 0 -21 -5 -25 -30 -25 -25 0 -30 4 -30 25 0 23 -3 25 -50 25
-47 0 -50 -2 -50 -25 0 -21 -5 -25 -30 -25 -25 0 -30 -4 -30 -25 0 -20 -5 -25
-25 -25 -20 0 -25 5 -25 25 0 25 -1 25 -85 25 -84 0 -85 0 -85 -25 0 -24 3
-25 55 -25 54 0 55 0 55 -30 0 -25 -4 -30 -25 -30 -20 0 -25 -5 -25 -25 0 -21
-5 -25 -30 -25 -25 0 -30 4 -30 25 0 20 -5 25 -25 25 -25 0 -25 -1 -25 -80 l0
-80 -110 0 -110 0 0 -25 c0 -21 5 -25 30 -25 27 0 30 -3 30 -30 0 -27 -3 -30
-30 -30 l-30 0 0 -80 0 -80 -80 0 -80 0 0 -55 c0 -54 0 -55 30 -55 25 0 30 -4
30 -25 0 -20 5 -25 25 -25 21 0 25 -5 25 -30 0 -30 -1 -30 -55 -30 -52 0 -55
-1 -55 -25 0 -21 -5 -25 -30 -25 l-30 0 0 -80 0 -80 30 0 c27 0 30 -3 30 -30
0 -27 3 -30 30 -30 30 0 30 -1 30 -55 0 -54 0 -55 -30 -55 -30 0 -30 -1 -30
-55 l0 -55 55 0 55 0 0 -80 c0 -79 0 -80 25 -80 20 0 25 -5 25 -25 0 -25 1
-25 85 -25 l85 0 0 -30 0 -30 105 0 105 0 0 -25 c0 -21 5 -25 30 -25 25 0 30
-4 30 -25 0 -20 5 -25 25 -25 24 0 25 -3 25 -55 0 -54 0 -55 30 -55 27 0 30
-3 30 -30 0 -25 4 -30 25 -30 20 0 25 -5 25 -25 0 -20 5 -25 25 -25 21 0 25
-5 25 -30 0 -27 3 -30 30 -30 25 0 30 -4 30 -25 0 -20 5 -25 25 -25 20 0 25
-5 25 -25 0 -21 5 -25 30 -25 27 0 30 -3 30 -30 0 -25 4 -30 25 -30 20 0 25
-5 25 -25 0 -24 3 -25 55 -25 54 0 55 0 55 -30 0 -30 1 -30 55 -30 52 0 55 -1
55 -25 0 -24 3 -25 55 -25 54 0 55 0 55 -30 l0 -30 135 0 135 0 0 30 c0 25 4
30 25 30 20 0 25 5 25 25 0 20 5 25 25 25 21 0 25 5 25 30 0 27 3 30 30 30 30
0 30 1 30 55 0 52 1 55 25 55 23 0 25 3 25 50 0 49 1 50 30 50 30 0 30 1 30
55 0 52 1 55 25 55 24 0 25 3 25 55 0 54 0 55 30 55 l30 0 0 80 c0 79 0 80 25
80 25 0 25 1 25 85 0 84 0 85 25 85 23 0 25 3 25 50 0 49 1 50 30 50 l30 0 0
110 0 110 -30 0 -30 0 0 80 c0 79 0 80 -25 80 -21 0 -25 5 -25 30 0 30 1 30
55 30 54 0 55 0 55 -30 0 -26 4 -30 28 -30 26 0 27 2 27 55 0 53 -1 55 -27 55
-27 0 -28 2 -28 55 0 52 1 55 25 55 24 0 25 3 25 55 l0 55 60 0 c57 0 60 1 60
25 0 21 -5 25 -30 25 -27 0 -30 3 -30 30 0 30 -1 30 -55 30 -54 0 -55 0 -55
-30 0 -27 -3 -30 -30 -30 -30 0 -30 1 -30 55 l0 55 55 0 c54 0 55 0 55 30 0
30 -1 30 -55 30 l-55 0 0 50 c0 47 -2 50 -25 50 -21 0 -25 5 -25 30 0 30 1 30
55 30 52 0 55 1 55 26 l0 25 -112 -2 c-62 -2 -107 -4 -100 -7 7 -2 12 -8 12
-13 0 -6 -5 -7 -10 -4 -6 4 -9 1 -8 -7 2 -8 -8 -14 -24 -16 -24 -3 -28 0 -28
22 0 26 0 26 -85 26 l-85 0 0 30 c0 27 3 30 30 30 29 0 30 1 30 50 0 47 2 50
25 50 20 0 25 -5 25 -25 0 -21 5 -25 30 -25 25 0 30 4 30 25 0 21 -5 25 -30
25 -27 0 -30 3 -30 30 0 30 -1 30 -55 30 -54 0 -55 0 -55 -30 0 -25 -4 -30
-25 -30 -20 0 -25 -5 -25 -25 0 -20 -5 -25 -25 -25 -20 0 -25 5 -25 25 0 25
-1 25 -85 25 l-85 0 0 60 0 60 -135 0 -135 0 0 -30z m220 -60 c0 -30 -1 -30
-55 -30 -54 0 -55 0 -55 30 0 30 1 30 55 30 54 0 55 0 55 -30z m583 -233 c-18
-11 -25 -5 -17 16 4 13 9 14 19 4 11 -10 10 -14 -2 -20z m-1883 -742 c0 -20
-5 -25 -25 -25 -20 0 -25 -5 -25 -25 0 -21 -5 -25 -30 -25 -29 0 -30 1 -30 50
l0 50 55 0 c52 0 55 -1 55 -25z"/>
</g>
</svg>
